<?xml version="1.0" encoding="UTF-8"?>
<svg id="Layer_1" data-name="Layer 1" xmlns="http://www.w3.org/2000/svg" viewBox="0 0 1920 448.18">
  <defs>
    <style>
      .cls-1 {
        stroke-width: 0px;
      }
    </style>
  </defs>
  <path class="cls-1" d="M1920,0v1c-.67,0-1.34,0-2,.02-78.49.57-118.74,35.27-157.67,68.86-39.4,33.98-80.15,69.12-160.33,69.12s-120.93-35.14-160.33-69.12c-39.26-33.87-79.86-68.88-159.67-68.88s-120.42,35.01-159.68,68.88c-39.4,33.98-80.14,69.12-160.33,69.12s-120.92-35.14-160.32-69.12C760.41,36.01,719.81,1,640,1s-120.41,35.01-159.68,68.88c-39.4,33.98-80.14,69.12-160.32,69.12s-120.93-35.14-160.33-69.12C120.41,36.01,79.81,1,0,1V0c3.27,0,6.48.06,9.63.18,73.89,2.69,112.91,36.35,150.7,68.94,39.26,33.86,79.85,68.88,159.67,68.88s120.41-35.02,159.67-68.88C517.46,36.53,556.48,2.87,630.37.18c3.15-.12,6.36-.18,9.63-.18s6.48.06,9.63.18c73.88,2.69,112.9,36.35,150.69,68.94,39.26,33.86,79.86,68.88,159.67,68.88s120.42-35.02,159.68-68.88C1157.46,36.53,1196.48,2.87,1270.37.18c3.15-.12,6.36-.18,9.63-.18s6.48.06,9.63.18c73.88,2.69,112.9,36.35,150.69,68.94,39.26,33.86,79.86,68.88,159.68,68.88s120.41-35.02,159.67-68.88C1797.46,36.53,1836.48,2.87,1910.37.18c3.15-.12,6.36-.18,9.63-.18Z"/>
  <path class="cls-1" d="M1918,1.02v447.16H0V1c79.81,0,120.41,35.01,159.67,68.88,39.4,33.98,80.14,69.12,160.33,69.12s120.92-35.14,160.32-69.12C519.59,36.01,560.18,1,640,1s120.41,35.01,159.67,68.88c39.4,33.98,80.14,69.12,160.32,69.12s120.93-35.14,160.33-69.12c39.26-33.87,79.86-68.88,159.68-68.88s120.41,35.01,159.67,68.88c39.4,33.98,80.14,69.12,160.33,69.12s120.93-35.14,160.33-69.12c38.93-33.59,79.18-68.29,157.67-68.86Z"/>
</svg>